<svg width="32" height="32" viewBox="0 0 40 40" fill="none" xmlns="http://www.w3.org/2000/svg">
  <!-- Shield background -->
  <path d="M20 2L4 9v10c0 9.4 6.8 18.2 16 20.4C29.2 37.2 36 28.4 36 19V9L20 2z" fill="url(#grad)" />
  <!-- Checkmark -->
  <path d="M11 20.5l5.5 5.5 3-3" stroke="white" stroke-width="2.2" stroke-linecap="round" stroke-linejoin="round" />
  <!-- Upward arrow -->
  <path d="M22 25V15m0 0l-3.5 3.5M22 15l3.5 3.5" stroke="#FCD34D" stroke-width="2.2" stroke-linecap="round" stroke-linejoin="round" />
  <!-- Tricolor accent -->
  <path d="M9.5 30.5 Q20 34 30.5 30.5" stroke="#FF9933" stroke-width="1.5" stroke-linecap="round" fill="none" />
  <path d="M8 32.5 Q20 36 32 32.5" stroke="white" stroke-width="1" stroke-linecap="round" fill="none" opacity="0.6" />
  <path d="M10 34 Q20 37.5 30 34" stroke="#138808" stroke-width="1.5" stroke-linecap="round" fill="none" />
  <defs>
    <linearGradient id="grad" x1="4" y1="2" x2="36" y2="40" gradientUnits="userSpaceOnUse">
      <stop offset="0%" stop-color="#2563EB" />
      <stop offset="100%" stop-color="#1E3A8A" />
    </linearGradient>
  </defs>
</svg>
